<?xml version="1.0" encoding="iso-8859-1"?>
<!-- Uploaded to: SVG Repo, www.svgrepo.com, Generator: SVG Repo Mixer Tools -->
<svg height="800px" width="800px" version="1.1" id="Layer_1" xmlns="http://www.w3.org/2000/svg" xmlns:xlink="http://www.w3.org/1999/xlink" 
	 viewBox="0 0 512 512" xml:space="preserve">
<path style="fill:#D7EBFF;" d="M461.913,133.565H50.087c-9.217,0-16.696,7.473-16.696,16.696v345.043
	c0,9.223,7.479,16.696,16.696,16.696h411.826c9.217,0,16.696-7.473,16.696-16.696V150.261
	C478.609,141.038,471.13,133.565,461.913,133.565z"/>
<path style="fill:#C4E2FF;" d="M461.913,133.565H256V512h205.913c9.217,0,16.696-7.473,16.696-16.696V150.261
	C478.609,141.038,471.13,133.565,461.913,133.565z"/>
<path style="fill:#3ABBE6;" d="M395.13,445.217H294.957c-9.217,0-16.696-7.473-16.696-16.696V328.348
	c0-9.223,7.479-16.696,16.696-16.696H395.13c9.217,0,16.696,7.473,16.696,16.696v100.174
	C411.826,437.744,404.348,445.217,395.13,445.217z"/>
<path style="fill:#A6673A;" d="M217.043,512H116.87c-9.217,0-16.696-7.473-16.696-16.696V328.348
	c0-9.223,7.479-16.696,16.696-16.696h100.174c9.217,0,16.696,7.473,16.696,16.696v166.957C233.739,504.527,226.261,512,217.043,512z
	"/>
<path style="fill:#736056;" d="M205.913,378.435c-9.217,0-16.696,7.473-16.696,16.696c0,9.223,7.479,16.696,16.696,16.696h27.826
	v-33.391H205.913z"/>
<path style="fill:#D7EBFF;" d="M361.739,100.174H150.261c-9.217,0-16.696-7.473-16.696-16.696V33.391
	C133.565,14.978,148.543,0,166.957,0h178.087c18.413,0,33.391,14.978,33.391,33.391v50.087
	C378.435,92.701,370.956,100.174,361.739,100.174z"/>
<path style="fill:#C4E2FF;" d="M345.043,0H256v100.174h105.739c9.217,0,16.696-7.473,16.696-16.696V33.391
	C378.435,14.978,363.457,0,345.043,0z"/>
<path style="fill:#FFE14D;" d="M89.043,256L89.043,256c-30.736,0-55.652-24.917-55.652-55.652v-77.913h111.304v77.913
	C144.696,231.083,119.779,256,89.043,256z"/>
<path style="fill:#E6563A;" d="M200.348,256L200.348,256c-30.736,0-55.652-24.917-55.652-55.652v-77.913H256v77.913
	C256,231.083,231.083,256,200.348,256z"/>
<path style="fill:#FFCC33;" d="M311.652,256L311.652,256C280.917,256,256,231.083,256,200.348v-77.913h111.304v77.913
	C367.304,231.083,342.388,256,311.652,256z"/>
<path style="fill:#D9472B;" d="M422.957,256L422.957,256c-30.736,0-55.652-24.917-55.652-55.652v-77.913h111.304v77.913
	C478.609,231.083,453.692,256,422.957,256z"/>
<path style="fill:#A6673A;" d="M495.304,166.957H16.696C7.479,166.957,0,159.484,0,150.261v-50.087
	c0-18.413,14.978-33.391,33.391-33.391h445.217c18.413,0,33.391,14.978,33.391,33.391v50.087
	C512,159.484,504.521,166.957,495.304,166.957z"/>
<path style="fill:#99522E;" d="M478.609,66.783H256v100.174h239.304c9.217,0,16.696-7.473,16.696-16.696v-50.087
	C512,81.761,497.022,66.783,478.609,66.783z"/>
<path style="fill:#736056;" d="M495.304,512H16.696C7.479,512,0,504.527,0,495.304s7.479-16.696,16.696-16.696h478.609
	c9.217,0,16.696,7.473,16.696,16.696S504.521,512,495.304,512z"/>
<path style="fill:#665247;" d="M495.304,478.609H256V512h239.304c9.217,0,16.696-7.473,16.696-16.696
	S504.521,478.609,495.304,478.609z"/>
</svg>